<?xml version="1.0" standalone="no"?>
<!DOCTYPE svg PUBLIC "-//W3C//DTD SVG 20010904//EN"
 "http://www.w3.org/TR/2001/REC-SVG-20010904/DTD/svg10.dtd">
<svg version="1.0" xmlns="http://www.w3.org/2000/svg"
 width="317.000000pt" height="317.000000pt" viewBox="0 0 317.000000 317.000000"
 preserveAspectRatio="xMidYMid meet">
<metadata>
Created by potrace 1.11, written by Peter Selinger 2001-2013
</metadata>
<g transform="translate(0.000000,317.000000) scale(0.100000,-0.100000)"
fill="#000000" stroke="none">
<path d="M190 3048 c-26 -14 -57 -41 -75 -66 l-30 -44 0 -1361 c0 -1504 -5
-1384 62 -1451 58 -59 -24 -56 1433 -56 1457 0 1375 -3 1433 56 67 67 62 -53
62 1449 l0 1360 -30 45 c-19 28 -47 54 -75 68 l-44 22 -1346 0 -1346 0 -44
-22z m1140 -944 c0 -240 4 -393 9 -389 5 3 148 181 317 395 l307 390 214 0
c162 0 212 -3 207 -12 -4 -6 -153 -200 -331 -430 -178 -229 -323 -420 -323
-423 0 -4 182 -240 405 -525 223 -285 405 -521 405 -524 0 -3 -132 -6 -292 -6
l-293 1 -300 390 c-165 215 -306 395 -312 401 -10 8 -13 -70 -13 -391 l0 -401
-225 0 -225 0 0 960 0 960 225 0 225 0 0 -396z"/>
</g>
</svg>
